<svg width="20" height="18" viewBox="0 0 20 18" fill="none" xmlns="http://www.w3.org/2000/svg">
<path d="M9.31796 12.162C6.19261 9.84871 5.34556 7.75443 5.19595 6.63893C5.07494 5.73662 5.3352 5.40158 5.38168 5.34685C5.60911 5.21313 5.76366 5.16286 5.84398 5.14303C5.92864 5.12214 5.97302 5.12447 5.9893 5.12583C6.02927 5.12919 6.0933 5.14939 6.15626 5.19668L6.1566 5.19693C6.17415 5.21011 6.19257 5.22396 6.21176 5.23839C6.4327 5.40452 6.75616 5.64774 7.04884 5.83935C7.21602 5.9488 7.51723 6.13837 7.89818 6.31052C8.24338 6.46651 9.00026 6.77087 10 6.77087C10.9997 6.77087 11.7566 6.46651 12.1018 6.31052C12.4828 6.13837 12.784 5.9488 12.9512 5.83936C13.2438 5.64774 13.5673 5.40453 13.7882 5.2384C13.8074 5.22397 13.8259 5.21012 13.8434 5.19693L13.8437 5.19669C13.9067 5.14939 13.9708 5.12919 14.0107 5.12583C14.027 5.12447 14.0714 5.12214 14.156 5.14304C14.2364 5.16286 14.3909 5.21313 14.6183 5.34683C14.6648 5.40157 14.9251 5.73663 14.8041 6.63894C14.6544 7.75445 13.8075 9.84867 10.6821 12.1619M9.31796 12.162L6.49205 15.9799M9.31796 12.162L6.49205 15.9799M9.31796 12.162C9.60413 12.3738 9.81868 12.5322 10 12.6618C10.1814 12.5322 10.396 12.3737 10.6821 12.1619M6.49205 15.9799L6.49211 15.98C7.97384 17.0767 8.7147 17.625 10 17.625C11.2853 17.625 12.0262 17.0766 13.508 15.9799M6.49205 15.9799C-1.28751 10.2218 -0.524346 3.39657 2.84838 1.32773C5.4183 -0.248653 7.66131 0.386607 9.0087 1.39851L9.00962 1.3992C9.56158 1.81365 9.83756 2.02087 10 2.02087C10.1624 2.02087 10.4384 1.81365 10.9904 1.3992L10.9913 1.39851C12.3387 0.386607 14.5817 -0.248653 17.1517 1.32773C20.5243 3.39657 21.2875 10.2218 13.508 15.9799M10.6821 12.1619L13.508 15.9799M10.6821 12.1619L13.508 15.9799" stroke="#C1CF16" stroke-width="9.5" stroke-linecap="round"/>
</svg>
