<svg width="56" height="57" viewBox="0 0 56 57" fill="none" xmlns="http://www.w3.org/2000/svg">
<path d="M18.6667 37.8333L39.0137 36.1377C45.3802 35.6073 46.8093 34.2167 47.5149 27.8674L49.0001 14.5" stroke="#C1CF16" stroke-width="2" stroke-linecap="round"/>
<path d="M14 14.5H19.8333M51.3333 14.5H43.1667" stroke="#C1CF16" stroke-width="2" stroke-linecap="round"/>
<path d="M25.6667 20.3333C26.8136 21.5133 29.8663 26.1667 31.5001 26.1667M31.5001 26.1667C33.1339 26.1667 36.1866 21.5133 37.3334 20.3333M31.5001 26.1667V7.5" stroke="#C1CF16" stroke-width="2" stroke-linecap="round" stroke-linejoin="round"/>
<path d="M13.9999 51.8333C16.5772 51.8333 18.6666 49.744 18.6666 47.1667C18.6666 44.5893 16.5772 42.5 13.9999 42.5C11.4226 42.5 9.33325 44.5893 9.33325 47.1667C9.33325 49.744 11.4226 51.8333 13.9999 51.8333Z" stroke="#C1CF16" stroke-width="2"/>
<path d="M39.6667 51.8333C42.244 51.8333 44.3333 49.744 44.3333 47.1667C44.3333 44.5893 42.244 42.5 39.6667 42.5C37.0893 42.5 35 44.5893 35 47.1667C35 49.744 37.0893 51.8333 39.6667 51.8333Z" stroke="#C1CF16" stroke-width="2"/>
<path d="M18.6667 47.1667H35.0001" stroke="#C1CF16" stroke-width="2" stroke-linecap="round"/>
<path d="M4.66675 5.16669H6.92075C9.125 5.16669 11.0464 6.62406 11.581 8.70152L18.5233 35.6785C18.8741 37.0419 18.5739 38.486 17.706 39.6104L15.4751 42.5" stroke="#C1CF16" stroke-width="2" stroke-linecap="round"/>
</svg>
