<svg width="16" height="16" viewBox="0 0 16 16" fill="none" xmlns="http://www.w3.org/2000/svg">
<path d="M1.97778 6.99707V10.3316C1.97778 12.2179 1.97778 13.161 2.56357 13.747C3.14936 14.3331 4.09216 14.3331 5.97778 14.3331H9.97778C11.8634 14.3331 12.8062 14.3331 13.392 13.747C13.9778 13.161 13.9778 12.2179 13.9778 10.3316V6.99707" stroke="#495D69" stroke-width="1.5" stroke-linecap="round"/>
<path d="M4.64453 11.9955H7.3112" stroke="#495D69" stroke-width="1.5" stroke-linecap="round"/>
<path d="M6.73578 5.612C6.5478 6.29093 5.8641 7.46207 4.5651 7.6318C3.41814 7.78167 2.54822 7.28107 2.32602 7.07174C2.08104 6.902 1.52269 6.35882 1.38596 6.01936C1.24922 5.67989 1.40874 4.94438 1.52269 4.64452L1.9782 3.3256C2.0894 2.99432 2.34972 2.21078 2.61659 1.94576C2.88347 1.68074 3.42379 1.66921 3.64618 1.66921H8.31652C9.51865 1.6862 12.1472 1.6585 12.6668 1.66922C13.1864 1.67994 13.4987 2.1155 13.5898 2.3022C14.3651 4.18008 14.6666 5.25556 14.6666 5.71384C14.5654 6.20272 14.1466 7.12454 12.6668 7.53C11.1288 7.9514 10.2569 7.13174 9.98332 6.81714M6.1034 6.81714C6.3199 7.083 6.99905 7.61827 7.98352 7.6318C8.96805 7.6454 9.81812 6.95854 10.1201 6.61342C10.2055 6.51158 10.3901 6.20946 10.5816 5.612" stroke="#495D69" stroke-width="1.5" stroke-linecap="round" stroke-linejoin="round"/>
</svg>
